<svg width="22" height="22" viewBox="0 0 22 22" fill="none" xmlns="http://www.w3.org/2000/svg">
<path fill-rule="evenodd" clip-rule="evenodd" d="M14.1323 3.70877C13.5136 3.70877 12.9193 3.9574 12.4804 4.40144L5.38877 11.5764C4.66014 12.3136 4.25 13.3144 4.25 14.3589C4.25 15.4034 4.66014 16.4042 5.38877 17.1413C6.11725 17.8784 7.10432 18.2916 8.1326 18.2916C9.16088 18.2916 10.148 17.8784 10.8764 17.1413L17.9681 9.96637C18.2601 9.67093 18.735 9.6695 19.0287 9.96318C19.3225 10.2569 19.3239 10.7345 19.0319 11.0299L11.9403 18.2049C10.9312 19.2258 9.56161 19.8002 8.1326 19.8002C6.70359 19.8002 5.33403 19.2258 4.32494 18.2049C3.31601 17.1841 2.75 15.8006 2.75 14.3589C2.75 12.9172 3.31601 11.5337 4.32494 10.5129L11.4166 3.33792C12.1361 2.60997 13.1129 2.2002 14.1323 2.2002C15.1518 2.2002 16.1286 2.60997 16.8481 3.33792C17.5674 4.06571 17.9707 5.05185 17.9707 6.07916C17.9707 7.10648 17.5674 8.09262 16.8481 8.82041L9.74871 15.9954C9.74862 15.9955 9.74881 15.9953 9.74871 15.9954C9.31884 16.4302 8.73466 16.6755 8.12488 16.6755C7.51497 16.6755 6.93095 16.4303 6.50106 15.9954C6.07131 15.5606 5.83068 14.9718 5.83068 14.3589C5.83068 13.7459 6.07131 13.1572 6.50106 12.7224L13.0529 6.10141C13.345 5.80614 13.8199 5.80499 14.1135 6.09885C14.4071 6.39271 14.4082 6.87029 14.1161 7.16557L7.56488 13.7859C7.41544 13.9371 7.33068 14.1431 7.33068 14.3589C7.33068 14.5746 7.41544 14.7807 7.56488 14.9319C7.71418 15.0829 7.9157 15.1669 8.12488 15.1669C8.33406 15.1669 8.53559 15.0829 8.68488 14.9319L15.7843 7.75689C16.2233 7.31269 16.4707 6.70929 16.4707 6.07916C16.4707 5.44904 16.2233 4.84564 15.7843 4.40144C15.3454 3.9574 14.7511 3.70877 14.1323 3.70877Z" fill="#818386"/>
</svg>
