<svg width="48" height="48" viewBox="0 0 48 48" fill="none" xmlns="http://www.w3.org/2000/svg">
<g opacity="0.7">
<path fill-rule="evenodd" clip-rule="evenodd" d="M4.20039 5.5918C3.20628 5.5918 2.40039 6.39768 2.40039 7.3918C2.40039 8.38591 3.20628 9.1918 4.20039 9.1918H9.05194L10.3312 15.5834C10.3389 15.6321 10.3485 15.6801 10.36 15.7274L13.0009 28.9221L13.0013 28.9238C13.2285 30.0657 13.8499 31.0914 14.7569 31.8215C15.6593 32.5479 16.7873 32.9357 17.9453 32.918H33.2892C34.4471 32.9357 35.5751 32.5479 36.4776 31.8215C37.385 31.091 38.0066 30.0646 38.2335 28.9221L38.2336 28.9221L38.2361 28.9086L40.7669 15.6377C40.8674 15.1108 40.7277 14.5665 40.3857 14.1531C40.0437 13.7398 39.5353 13.5005 38.9988 13.5005H13.5857L12.2924 7.03853C12.124 6.19729 11.3853 5.5918 10.5274 5.5918H4.20039ZM16.5315 28.2181L14.3063 17.1005H36.8231L34.7015 28.2259C34.6383 28.5377 34.468 28.8177 34.2201 29.0172C33.9709 29.2179 33.659 29.3245 33.339 29.3183L33.3045 29.318H17.9299L17.8955 29.3183C17.5755 29.3245 17.2636 29.2179 17.0143 29.0172C16.7651 28.8165 16.5943 28.5346 16.532 28.2207L16.5315 28.2181ZM16.8544 39.2458C16.9753 39.2458 17.0733 39.1477 17.0733 39.0268C17.0733 38.9059 16.9753 38.8079 16.8544 38.8079C16.7335 38.8079 16.6354 38.9059 16.6354 39.0268C16.6354 39.1477 16.7335 39.2458 16.8544 39.2458ZM13.4733 39.0268C13.4733 37.1595 14.9871 35.6458 16.8544 35.6458C18.7217 35.6458 20.2354 37.1595 20.2354 39.0268C20.2354 40.8941 18.7217 42.4079 16.8544 42.4079C14.9871 42.4079 13.4733 40.8941 13.4733 39.0268ZM34.2536 39.2458C34.3745 39.2458 34.4725 39.1477 34.4725 39.0268C34.4725 38.9059 34.3745 38.8079 34.2536 38.8079C34.1327 38.8079 34.0346 38.9059 34.0346 39.0268C34.0346 39.1477 34.1327 39.2458 34.2536 39.2458ZM30.8725 39.0268C30.8725 37.1595 32.3863 35.6458 34.2536 35.6458C36.1209 35.6458 37.6346 37.1595 37.6346 39.0268C37.6346 40.8941 36.1209 42.4079 34.2536 42.4079C32.3863 42.4079 30.8725 40.8941 30.8725 39.0268Z" fill="white"/>
</g>
</svg>
