<svg width="20" height="20" viewBox="0 0 20 20" fill="none" xmlns="http://www.w3.org/2000/svg">
<path fill-rule="evenodd" clip-rule="evenodd" d="M12.8989 9.75503C13.1994 9.48146 13.6647 9.50325 13.9383 9.8037C14.2118 10.1041 14.1901 10.5695 13.8896 10.8431L9.99852 14.3861L6.10744 10.8431C5.80699 10.5695 5.7852 10.1041 6.05877 9.8037C6.33235 9.50325 6.79768 9.48146 7.09813 9.75503L9.26278 11.726V2.73574C9.26278 2.3294 9.59218 2 9.99852 2C10.4049 2 10.7343 2.3294 10.7343 2.73574V11.726L12.8989 9.75503ZM3.45455 14.3633C3.45455 13.9617 3.12893 13.6361 2.72727 13.6361C2.32561 13.6361 2 13.9617 2 14.3633V15.333C2 16.8058 3.19391 17.9997 4.66667 17.9997H15.3333C16.8061 17.9997 18 16.8058 18 15.333V14.3633C18 13.9617 17.6744 13.6361 17.2727 13.6361C16.8711 13.6361 16.5455 13.9617 16.5455 14.3633V15.333C16.5455 16.0025 16.0028 16.5451 15.3333 16.5451H4.66667C3.99723 16.5451 3.45455 16.0025 3.45455 15.333V14.3633Z" fill="white"/>
</svg>
