<svg width="56" height="56" viewBox="0 0 56 56" fill="none" xmlns="http://www.w3.org/2000/svg">
<rect width="56" height="56" fill="#F2F5FA"/>
<path fill-rule="evenodd" clip-rule="evenodd" d="M20.5031 22.9027C20.6969 22.7089 20.9598 22.6 21.2339 22.6H34.7681C35.0422 22.6 35.3051 22.7089 35.4989 22.9027C35.6927 23.0965 35.8016 23.3594 35.8016 23.6335V33.3008C35.8016 33.5749 35.6927 33.8377 35.4989 34.0316C35.3051 34.2254 35.0422 34.3343 34.7681 34.3343H23.1673C22.9286 34.3343 22.6997 34.4291 22.5309 34.5979L20.2004 36.9284V23.6335C20.2004 23.3594 20.3093 23.0965 20.5031 22.9027ZM21.2339 20.8C20.4824 20.8 19.7617 21.0985 19.2303 21.6299C18.6989 22.1613 18.4004 22.882 18.4004 23.6335V39.1012C18.4004 39.4652 18.6197 39.7934 18.956 39.9327C19.2923 40.072 19.6794 39.995 19.9368 39.7376L23.5401 36.1343H34.7681C35.5196 36.1343 36.2403 35.8357 36.7717 35.3044C37.3031 34.773 37.6016 34.0523 37.6016 33.3008V23.6335C37.6016 22.882 37.3031 22.1613 36.7717 21.6299C36.2403 21.0985 35.5196 20.8 34.7681 20.8H21.2339ZM22.8916 25.6C22.3945 25.6 21.9916 26.0029 21.9916 26.5C21.9916 26.997 22.3945 27.4 22.8916 27.4H33.1004C33.5974 27.4 34.0004 26.997 34.0004 26.5C34.0004 26.0029 33.5974 25.6 33.1004 25.6H22.8916ZM22.9004 29.2006C22.4033 29.2006 22.0004 29.6036 22.0004 30.1006C22.0004 30.5977 22.4033 31.0006 22.9004 31.0006H29.5041C30.0012 31.0006 30.4041 30.5977 30.4041 30.1006C30.4041 29.6036 30.0012 29.2006 29.5041 29.2006L22.9004 29.2006Z" fill="#333333"/>
<path d="M37 26.1C38.933 26.1 40.5 24.533 40.5 22.6C40.5 20.667 38.933 19.1 37 19.1C35.067 19.1 33.5 20.667 33.5 22.6C33.5 24.533 35.067 26.1 37 26.1Z" fill="#FD726A" stroke="#F2F5FA"/>
</svg>
