<svg width="56" height="56" viewBox="0 0 56 56" fill="none" xmlns="http://www.w3.org/2000/svg">
<rect width="56" height="56" fill="#F2F5FA"/>
<path d="M35.5004 31.9859C34.8276 31.2074 33.5688 30.0363 33.5688 26.2C33.5688 23.2863 31.6718 20.9538 29.1138 20.3815V19.6C29.1138 18.9374 28.6151 18.4 28.0002 18.4C27.3852 18.4 26.8866 18.9374 26.8866 19.6V20.3815C24.3286 20.9538 22.4316 23.2863 22.4316 26.2C22.4316 30.0363 21.1728 31.2074 20.5 31.9859C20.2911 32.2278 20.1985 32.5169 20.2002 32.8C20.204 33.415 20.6522 34 21.318 34H34.6824C35.3482 34 35.7967 33.415 35.8002 32.8C35.8019 32.5169 35.7093 32.2274 35.5004 31.9859ZM22.5517 32.2C23.2906 31.1511 24.0985 29.4126 24.1023 26.2218C24.1023 26.2143 24.1002 26.2075 24.1002 26.2C24.1002 23.8803 25.8461 22 28.0002 22C30.1542 22 31.9002 23.8803 31.9002 26.2C31.9002 26.2075 31.8981 26.2143 31.8981 26.2218C31.9019 29.413 32.7098 31.1515 33.4487 32.2H22.5517ZM28.0002 37.6C29.2301 37.6 30.2277 36.5256 30.2277 35.2H25.7727C25.7727 36.5256 26.7703 37.6 28.0002 37.6Z" fill="#333333"/>
<path d="M33.4004 24.9C35.3334 24.9 36.9004 23.333 36.9004 21.4C36.9004 19.467 35.3334 17.9 33.4004 17.9C31.4674 17.9 29.9004 19.467 29.9004 21.4C29.9004 23.333 31.4674 24.9 33.4004 24.9Z" fill="#FD726A" stroke="#F2F5FA"/>
</svg>
