<svg width="48" height="48" viewBox="0 0 48 48" fill="none" xmlns="http://www.w3.org/2000/svg">
<rect width="48" height="48" fill="#E0E0E0"/>
<g clip-path="url(#clip0)">
<rect width="1440" height="1251" transform="translate(-51 -1052)" fill="white"/>
<g clip-path="url(#clip1)">
<rect width="150" height="1261" transform="translate(-51 -1052)" fill="#3A63DE"/>
<rect width="150" height="150" transform="translate(-51 -40)" fill="#3A63DE"/>
<g opacity="0.7">
<path fill-rule="evenodd" clip-rule="evenodd" d="M23.1948 4.99003C23.7016 4.73666 24.298 4.73666 24.8048 4.99003L42.2048 13.69C42.8146 13.9949 43.1998 14.6182 43.1998 15.3C43.1998 15.9818 42.8146 16.6051 42.2048 16.91L24.8048 25.61C24.298 25.8633 23.7016 25.8633 23.1948 25.61L5.79482 16.91C5.18501 16.6051 4.7998 15.9818 4.7998 15.3C4.7998 14.6182 5.18501 13.9949 5.79482 13.69L23.1948 4.99003ZM10.6247 15.3L23.9998 21.9875L37.3749 15.3L23.9998 8.61246L10.6247 15.3ZM4.99023 31.8954C5.43481 31.0063 6.51602 30.6458 7.40518 31.0904L24.0002 39.3879L40.5952 31.0904C41.4844 30.6458 42.5656 31.0063 43.0102 31.8954C43.4548 32.7846 43.0943 33.8658 42.2052 34.3104L24.8052 43.0104C24.2984 43.2637 23.702 43.2637 23.1952 43.0104L5.79521 34.3104C4.90605 33.8658 4.54565 32.7846 4.99023 31.8954ZM7.40518 22.3904C6.51602 21.9458 5.43481 22.3062 4.99023 23.1954C4.54565 24.0846 4.90605 25.1658 5.79521 25.6104L23.1952 34.3104C23.702 34.5637 24.2984 34.5637 24.8052 34.3104L42.2052 25.6104C43.0943 25.1658 43.4548 24.0846 43.0102 23.1954C42.5656 22.3062 41.4844 21.9458 40.5952 22.3904L24.0002 30.6879L7.40518 22.3904Z" fill="white"/>
</g>
</g>
</g>
<defs>
<clipPath id="clip0">
<rect width="1440" height="1251" fill="white" transform="translate(-51 -1052)"/>
</clipPath>
<clipPath id="clip1">
<rect width="150" height="1261" fill="white" transform="translate(-51 -1052)"/>
</clipPath>
</defs>
</svg>
