<svg width="22" height="22" viewBox="0 0 22 22" fill="none" xmlns="http://www.w3.org/2000/svg">
<path fill-rule="evenodd" clip-rule="evenodd" d="M4.0498 9.89999C4.0498 6.66912 6.66894 4.04999 9.8998 4.04999C13.1307 4.04999 15.7498 6.66912 15.7498 9.89999C15.7498 13.1309 13.1307 15.75 9.8998 15.75C6.66894 15.75 4.0498 13.1309 4.0498 9.89999ZM9.8998 2.54999C5.84051 2.54999 2.5498 5.84069 2.5498 9.89999C2.5498 13.9593 5.84051 17.25 9.8998 17.25C11.6593 17.25 13.2744 16.6317 14.5397 15.6006L18.444 19.5048C18.7369 19.7977 19.2117 19.7977 19.5046 19.5048C19.7975 19.2119 19.7975 18.7371 19.5046 18.4442L15.6004 14.5399C16.6315 13.2746 17.2498 11.6595 17.2498 9.89999C17.2498 5.84069 13.9591 2.54999 9.8998 2.54999Z" fill="#818386"/>
</svg>
