<svg width="26" height="26" viewBox="0 0 26 26" fill="none" xmlns="http://www.w3.org/2000/svg">
<path d="M20.6203 2.75751L3.84001 9.69592C3.13306 9.9882 2.65983 10.6438 2.60491 11.4068C2.55004 12.1699 2.92457 12.8865 3.58237 13.277L8.39156 15.975C9.12762 15.2389 14.8071 11.1926 14.8071 11.1926C14.8071 11.1926 10.7608 16.8721 10.0248 17.6082L12.7227 22.4173C13.1132 23.0751 13.8298 23.4497 14.5929 23.3948C15.3574 23.3397 16.012 22.8653 16.3038 22.1597L23.2422 5.37943C23.5581 4.61543 23.3912 3.77769 22.8066 3.1931C22.222 2.60851 21.3843 2.44154 20.6203 2.75751Z" fill="white"/>
</svg>
