<svg width="48" height="48" viewBox="0 0 48 48" fill="none" xmlns="http://www.w3.org/2000/svg">
<g opacity="0.7">
<path fill-rule="evenodd" clip-rule="evenodd" d="M16.1998 4.7998C9.90376 4.7998 4.7998 9.90376 4.7998 16.1998V31.7998C4.7998 38.0958 9.90376 43.1998 16.1998 43.1998H31.7998C38.0958 43.1998 43.1998 38.0958 43.1998 31.7998V16.1998C43.1998 9.90376 38.0958 4.7998 31.7998 4.7998H16.1998ZM8.3998 16.1998C8.3998 11.892 11.892 8.3998 16.1998 8.3998H31.7998C36.1076 8.3998 39.5998 11.892 39.5998 16.1998V31.7998C39.5998 36.1076 36.1076 39.5998 31.7998 39.5998H16.1998C11.892 39.5998 8.3998 36.1076 8.3998 31.7998V16.1998ZM32.6056 20.9817C33.3412 20.313 33.3954 19.1746 32.7267 18.439C32.058 17.7034 30.9196 17.6492 30.184 18.3179L21.8248 25.9172L18.6856 23.0634C17.95 22.3947 16.8116 22.4489 16.1429 23.1845C15.4742 23.92 15.5284 25.0585 16.264 25.7272L20.614 29.6817C21.3006 30.3059 22.3491 30.3059 23.0356 29.6817L32.6056 20.9817Z" fill="white"/>
</g>
</svg>
