<svg width="48" height="48" viewBox="0 0 48 48" fill="none" xmlns="http://www.w3.org/2000/svg">
<g opacity="0.7">
<path fill-rule="evenodd" clip-rule="evenodd" d="M14.1582 4.7998C15.1523 4.7998 15.9582 5.60569 15.9582 6.5998V7.80918H22.1998V6.5998C22.1998 5.60569 23.0057 4.7998 23.9998 4.7998C24.9939 4.7998 25.7998 5.60569 25.7998 6.5998V7.80918H31.7998V6.5998C31.7998 5.60569 32.6057 4.7998 33.5998 4.7998C34.5939 4.7998 35.3998 5.60569 35.3998 6.5998V7.80918H36.5998C40.2449 7.80918 43.1998 10.7641 43.1998 14.4092V21.8342C43.1998 22.8283 42.3939 23.6342 41.3998 23.6342C40.4057 23.6342 39.5998 22.8283 39.5998 21.8342V14.4092C39.5998 12.7523 38.2567 11.4092 36.5998 11.4092H35.3998V12.6032C35.3998 13.5973 34.5939 14.4032 33.5998 14.4032C32.6057 14.4032 31.7998 13.5973 31.7998 12.6032V11.4092H25.7998V12.6032C25.7998 13.5973 24.9939 14.4032 23.9998 14.4032C23.0057 14.4032 22.1998 13.5973 22.1998 12.6032V11.4092H15.9582V12.6032C15.9582 13.5973 15.1523 14.4032 14.1582 14.4032C13.1641 14.4032 12.3582 13.5973 12.3582 12.6032V11.4092H11.3998C9.74295 11.4092 8.3998 12.7523 8.3998 14.4092V36.6092C8.3998 38.266 9.74295 39.6092 11.3998 39.6092H21.8248C22.8189 39.6092 23.6248 40.4151 23.6248 41.4092C23.6248 42.4033 22.8189 43.2092 21.8248 43.2092H11.3998C7.75473 43.2092 4.7998 40.2543 4.7998 36.6092V14.4092C4.7998 10.7641 7.75473 7.80918 11.3998 7.80918H12.3582V6.5998C12.3582 5.60569 13.1641 4.7998 14.1582 4.7998ZM15.8878 20.5292C15.8878 21.457 15.1356 22.2092 14.2078 22.2092C13.28 22.2092 12.5278 21.457 12.5278 20.5292C12.5278 19.6013 13.28 18.8492 14.2078 18.8492C15.1356 18.8492 15.8878 19.6013 15.8878 20.5292ZM20.6878 22.2092C21.6156 22.2092 22.3678 21.457 22.3678 20.5292C22.3678 19.6013 21.6156 18.8492 20.6878 18.8492C19.76 18.8492 19.0078 19.6013 19.0078 20.5292C19.0078 21.457 19.76 22.2092 20.6878 22.2092ZM15.8878 27.0812C15.8878 28.009 15.1356 28.7612 14.2078 28.7612C13.28 28.7612 12.5278 28.009 12.5278 27.0812C12.5278 26.1533 13.28 25.4012 14.2078 25.4012C15.1356 25.4012 15.8878 26.1533 15.8878 27.0812ZM20.6878 28.7612C21.6156 28.7612 22.3678 28.009 22.3678 27.0812C22.3678 26.1533 21.6156 25.4012 20.6878 25.4012C19.76 25.4012 19.0078 26.1533 19.0078 27.0812C19.0078 28.009 19.76 28.7612 20.6878 28.7612ZM15.8878 33.5852C15.8878 34.513 15.1356 35.2652 14.2078 35.2652C13.28 35.2652 12.5278 34.513 12.5278 33.5852C12.5278 32.6573 13.28 31.9052 14.2078 31.9052C15.1356 31.9052 15.8878 32.6573 15.8878 33.5852ZM20.6878 35.2652C21.6156 35.2652 22.3678 34.513 22.3678 33.5852C22.3678 32.6573 21.6156 31.9052 20.6878 31.9052C19.76 31.9052 19.0078 32.6573 19.0078 33.5852C19.0078 34.513 19.76 35.2652 20.6878 35.2652ZM28.9198 20.5292C28.9198 21.457 28.1676 22.2092 27.2398 22.2092C26.312 22.2092 25.5598 21.457 25.5598 20.5292C25.5598 19.6013 26.312 18.8492 27.2398 18.8492C28.1676 18.8492 28.9198 19.6013 28.9198 20.5292ZM33.7198 22.2092C34.6476 22.2092 35.3998 21.457 35.3998 20.5292C35.3998 19.6013 34.6476 18.8492 33.7198 18.8492C32.792 18.8492 32.0398 19.6013 32.0398 20.5292C32.0398 21.457 32.792 22.2092 33.7198 22.2092Z" fill="white"/>
<path fill-rule="evenodd" clip-rule="evenodd" d="M39.6 33.6093C39.6 36.923 36.9137 39.6093 33.6 39.6093C30.2863 39.6093 27.6 36.923 27.6 33.6093C27.6 30.2956 30.2863 27.6093 33.6 27.6093C36.9137 27.6093 39.6 30.2956 39.6 33.6093ZM43.2 33.6093C43.2 38.9112 38.9019 43.2093 33.6 43.2093C28.2981 43.2093 24 38.9112 24 33.6093C24 28.3073 28.2981 24.0093 33.6 24.0093C38.9019 24.0093 43.2 28.3073 43.2 33.6093ZM34.08 31.2093C34.08 30.5465 33.5427 30.0093 32.88 30.0093C32.2172 30.0093 31.68 30.5465 31.68 31.2093V34.8093C31.68 35.472 32.2172 36.0093 32.88 36.0093H35.76C36.4227 36.0093 36.96 35.472 36.96 34.8093C36.96 34.1465 36.4227 33.6093 35.76 33.6093H34.08V31.2093Z" fill="white"/>
</g>
</svg>
