<svg width="48" height="49" viewBox="0 0 48 49" fill="none" xmlns="http://www.w3.org/2000/svg">
<rect width="48" height="49" fill="#E0E0E0"/>
<g clip-path="url(#clip0)">
<rect width="1440" height="1251" transform="translate(-51 -752)" fill="white"/>
<g clip-path="url(#clip1)">
<rect width="150" height="1261" transform="translate(-51 -752)" fill="#3A63DE"/>
<rect width="150" height="150" transform="translate(-51 -40)" fill="#3A63DE"/>
<g opacity="0.7">
<path fill-rule="evenodd" clip-rule="evenodd" d="M9.0052 13.8054C9.39282 13.4178 9.91855 13.2 10.4667 13.2H37.5353C38.0835 13.2 38.6092 13.4178 38.9968 13.8054C39.3844 14.193 39.6022 14.7188 39.6022 15.2669V34.6016C39.6022 35.1498 39.3844 35.6755 38.9968 36.0632C38.6092 36.4508 38.0835 36.6685 37.5353 36.6685H14.3337C13.8563 36.6685 13.3984 36.8582 13.0609 37.1958L8.3998 41.8568V15.2669C8.3998 14.7188 8.61757 14.193 9.0052 13.8054ZM10.4667 9.60001C8.96378 9.60001 7.52237 10.1971 6.45961 11.2598C5.39685 12.3226 4.7998 13.764 4.7998 15.2669V46.2024C4.7998 46.9305 5.23836 47.5868 5.91097 47.8654C6.58359 48.144 7.3578 47.99 7.8726 47.4752L15.0793 40.2685H37.5353C39.0382 40.2685 40.4797 39.6715 41.5424 38.6087C42.6052 37.546 43.2022 36.1046 43.2022 34.6016V15.2669C43.2022 13.764 42.6052 12.3226 41.5424 11.2598C40.4797 10.1971 39.0382 9.60001 37.5353 9.60001H10.4667ZM13.7822 19.2C12.7881 19.2 11.9822 20.0059 11.9822 21C11.9822 21.9941 12.7881 22.8 13.7822 22.8H34.1998C35.1939 22.8 35.9998 21.9941 35.9998 21C35.9998 20.0059 35.1939 19.2 34.1998 19.2H13.7822ZM13.7998 26.4013C12.8057 26.4013 11.9998 27.2071 11.9998 28.2013C11.9998 29.1954 12.8057 30.0013 13.7998 30.0013H27.0073C28.0014 30.0013 28.8073 29.1954 28.8073 28.2013C28.8073 27.2071 28.0014 26.4013 27.0073 26.4013L13.7998 26.4013Z" fill="white"/>
</g>
</g>
</g>
<defs>
<clipPath id="clip0">
<rect width="1440" height="1251" fill="white" transform="translate(-51 -752)"/>
</clipPath>
<clipPath id="clip1">
<rect width="150" height="1261" fill="white" transform="translate(-51 -752)"/>
</clipPath>
</defs>
</svg>
