<svg width="48" height="48" viewBox="0 0 48 48" fill="none" xmlns="http://www.w3.org/2000/svg">
<path fill-rule="evenodd" clip-rule="evenodd" d="M39.5994 30H29.9994L29.9994 39.6H39.5994V30ZM29.9994 26.4H39.5994C41.5876 26.4 43.1994 28.0117 43.1994 30V39.6C43.1994 41.5882 41.5876 43.2 39.5994 43.2H29.9994C28.0112 43.2 26.3994 41.5882 26.3994 39.6V30C26.3994 28.0117 28.0112 26.4 29.9994 26.4Z" fill="white"/>
<path fill-rule="evenodd" clip-rule="evenodd" d="M17.9998 8.39999H8.3998L8.3998 18H17.9998V8.39999ZM39.5998 8.39999H29.9998V18H39.5998V8.39999ZM17.9998 30H8.3998L8.3998 39.6H17.9998V30ZM17.9998 4.79999H8.3998C6.41158 4.79999 4.7998 6.41176 4.7998 8.39999V18C4.7998 19.9882 6.41158 21.6 8.3998 21.6H17.9998C19.988 21.6 21.5998 19.9882 21.5998 18V8.39999C21.5998 6.41176 19.988 4.79999 17.9998 4.79999ZM39.5998 4.79999H29.9998C28.0116 4.79999 26.3998 6.41176 26.3998 8.39999V18C26.3998 19.9882 28.0116 21.6 29.9998 21.6H39.5998C41.588 21.6 43.1998 19.9882 43.1998 18V8.39999C43.1998 6.41176 41.588 4.79999 39.5998 4.79999ZM8.3998 26.4H17.9998C19.988 26.4 21.5998 28.0118 21.5998 30V39.6C21.5998 41.5882 19.988 43.2 17.9998 43.2H8.3998C6.41158 43.2 4.7998 41.5882 4.7998 39.6V30C4.7998 28.0118 6.41158 26.4 8.3998 26.4Z" fill="white"/>
</svg>
