<svg width="22" height="22" viewBox="0 0 22 22" fill="none" xmlns="http://www.w3.org/2000/svg">
<path d="M11 21C16.5228 21 21 16.5228 21 11C21 5.47715 16.5228 1 11 1C5.47715 1 1 5.47715 1 11C1 16.5228 5.47715 21 11 21Z" fill="#FFD93B"/>
<path d="M20.9992 11.0002C20.9992 16.5252 16.5211 21.0002 10.9992 21.0002C7.85547 21.0002 5.04922 19.5502 3.21484 17.2783C4.93047 18.6658 7.11484 19.4939 9.49297 19.4939C15.0148 19.4939 19.493 15.0189 19.493 9.49394C19.493 7.11582 18.6648 4.93144 17.2773 3.21582C19.5461 5.05019 20.9992 7.85644 20.9992 11.0002Z" fill="#F4C534"/>
<path d="M9.15375 4.84461C7.81875 4.32962 6.53937 4.51649 5.73438 5.42774C6.25875 3.94712 7.68875 3.31462 9.01937 3.63587L9.15375 4.84461Z" fill="#3E4347"/>
<path d="M10.6291 9.39769C10.6347 11.3446 9.38408 12.9233 7.83595 12.9233C6.28783 12.9233 5.02908 11.3452 5.02346 9.39769C5.01783 7.45082 6.26846 5.87207 7.81658 5.87207C9.36408 5.87207 10.6235 7.45082 10.6291 9.39769Z" fill="#3E4347"/>
<path d="M10.1275 9.39773C10.2569 11.0984 9.33128 12.4771 8.06004 12.4771C6.78879 12.4771 5.65316 11.0984 5.52379 9.39773C5.39441 7.69711 6.32004 6.31836 7.59129 6.31836C8.86253 6.31773 9.99816 7.69648 10.1275 9.39773Z" fill="white"/>
<path d="M8.65555 11.2883C9.3207 11.2883 9.85992 10.685 9.85992 9.94076C9.85992 9.19656 9.3207 8.59326 8.65555 8.59326C7.99039 8.59326 7.45117 9.19656 7.45117 9.94076C7.45117 10.685 7.99039 11.2883 8.65555 11.2883Z" fill="#3E4347"/>
<path d="M9.31042 9.72573C9.17667 9.84823 8.93605 9.79511 8.76667 9.61448C8.5973 9.43448 8.56917 9.18823 8.69605 9.07136C8.8298 8.94886 9.07042 8.99573 9.23355 9.18198C9.40355 9.36261 9.4373 9.60886 9.31042 9.72573Z" fill="#5A5F63"/>
<path d="M12.8457 4.84461C14.1807 4.32962 15.4601 4.51649 16.2651 5.42774C15.7407 3.94712 14.3107 3.31462 12.9801 3.63587L12.8457 4.84461Z" fill="#3E4347"/>
<path d="M11.3711 9.39769C11.3655 11.3446 12.6161 12.9233 14.1642 12.9233C15.7124 12.9233 16.9711 11.3452 16.9767 9.39769C16.9824 7.45082 15.7317 5.87207 14.1836 5.87207C12.6361 5.87207 11.3767 7.45082 11.3711 9.39769Z" fill="#3E4347"/>
<path d="M11.8714 9.39773C11.7421 11.0984 12.6677 12.4771 13.9389 12.4771C15.2102 12.4771 16.3458 11.0984 16.4752 9.39773C16.6046 7.69711 15.6789 6.31836 14.4077 6.31836C13.1364 6.31773 12.0008 7.69648 11.8714 9.39773Z" fill="white"/>
<path d="M13.343 11.2883C14.0082 11.2883 14.5474 10.685 14.5474 9.94076C14.5474 9.19656 14.0082 8.59326 13.343 8.59326C12.6779 8.59326 12.1387 9.19656 12.1387 9.94076C12.1387 10.685 12.6779 11.2883 13.343 11.2883Z" fill="#3E4347"/>
<path d="M12.6881 9.72573C12.8212 9.84823 13.0624 9.79511 13.2318 9.61448C13.4012 9.43448 13.4287 9.18823 13.3024 9.07136C13.1693 8.94886 12.9281 8.99573 12.7649 9.18198C12.5949 9.36261 12.5612 9.60886 12.6881 9.72573Z" fill="#5A5F63"/>
<path d="M16.2508 15.4362C16.2508 15.4362 15.9558 15.0524 15.6008 14.7987C15.5633 14.7674 15.5258 14.7424 15.482 14.7174C14.8664 16.5668 12.9477 17.2943 11.007 17.3674C8.12892 17.2712 6.75267 15.7218 6.51955 14.7112C6.48205 14.7424 6.4383 14.7674 6.39455 14.7987C6.06205 15.0362 5.7508 15.4362 5.7508 15.4362C5.70955 15.2299 5.85955 14.7981 6.2133 14.5487C6.51142 14.3206 6.9608 14.2606 7.19455 14.3424C6.98955 14.4449 6.74955 14.5612 6.55705 14.6862C6.96142 15.4943 8.40455 16.6899 10.9883 16.7424C13.5027 16.6981 14.9814 15.6174 15.4445 14.6924C15.1845 14.5237 15.0752 14.4843 14.807 14.3424C15.0408 14.2606 15.4902 14.3206 15.7883 14.5487C16.0708 14.7474 16.2508 15.0593 16.2508 15.4362Z" fill="#3E4347"/>
<path d="M9.78125 18.2285C9.99312 18.2616 10.6612 18.5641 10.8719 18.5516C11.4281 18.5779 12.0237 18.2285 12.0237 18.2285C11.9169 18.6285 11.4787 19.0123 10.8994 18.9948C10.3163 18.9704 9.8675 18.5754 9.78125 18.2285Z" fill="#F4C534"/>
</svg>
