<svg width="48" height="48" viewBox="0 0 48 48" fill="none" xmlns="http://www.w3.org/2000/svg">
<g opacity="0.7">
<path fill-rule="evenodd" clip-rule="evenodd" d="M8.60302 12.8849C8.88896 12.3602 9.44655 11.9999 10.0799 11.9999H37.9199C38.5532 11.9999 39.1108 12.3602 39.3968 12.885L24 23.6627L8.60302 12.8849ZM4.79991 13.6593C4.79979 13.6706 4.79977 13.6819 4.79987 13.6932V34.5599C4.79987 37.468 7.17175 39.8399 10.0799 39.8399H37.9199C40.828 39.8399 43.1999 37.468 43.1999 34.5599C43.1999 32.2377 43.2071 29.915 43.2144 27.5923C43.2289 22.9553 43.2434 18.3178 43.2001 13.682C43.2001 13.6683 43.2 13.6546 43.1997 13.6408C43.1997 13.6376 43.1997 13.6344 43.1996 13.6312C43.1729 10.7964 40.8114 8.3999 37.9199 8.3999H10.0799C7.17864 8.3999 4.8111 10.7606 4.79991 13.6593ZM39.5999 17.1372V34.5599C39.5999 35.4798 38.8398 36.2399 37.9199 36.2399H10.0799C9.15998 36.2399 8.39987 35.4798 8.39987 34.5599V17.137L22.9677 27.3345C23.5875 27.7684 24.4124 27.7684 25.0322 27.3345L39.5999 17.1372Z" fill="white"/>
</g>
</svg>
