<svg width="22" height="22" viewBox="0 0 22 22" fill="none" xmlns="http://www.w3.org/2000/svg">
<path fill-rule="evenodd" clip-rule="evenodd" d="M4.0498 9.8998C4.0498 6.66894 6.66894 4.0498 9.8998 4.0498C13.1307 4.0498 15.7498 6.66894 15.7498 9.8998C15.7498 13.1307 13.1307 15.7498 9.8998 15.7498C6.66894 15.7498 4.0498 13.1307 4.0498 9.8998ZM9.8998 2.5498C5.84051 2.5498 2.5498 5.84051 2.5498 9.8998C2.5498 13.9591 5.84051 17.2498 9.8998 17.2498C11.6593 17.2498 13.2744 16.6315 14.5397 15.6004L18.444 19.5046C18.7369 19.7975 19.2117 19.7975 19.5046 19.5046C19.7975 19.2117 19.7975 18.7369 19.5046 18.444L15.6004 14.5397C16.6315 13.2744 17.2498 11.6593 17.2498 9.8998C17.2498 5.84051 13.9591 2.5498 9.8998 2.5498Z" fill="#818386"/>
</svg>
