<svg width="52" height="52" viewBox="0 0 52 52" fill="none" xmlns="http://www.w3.org/2000/svg">
<path d="M0 23.8C0 14.6344 0 10.0516 2.06304 6.68502C3.21742 4.80124 4.80124 3.21742 6.68502 2.06304C10.0516 0 14.6344 0 23.8 0H28.2003C37.3659 0 41.9487 0 45.3153 2.06304C47.1991 3.21742 48.7829 4.80124 49.9373 6.68502C52.0003 10.0516 52.0003 14.6344 52.0003 23.8V28.2003C52.0003 37.3659 52.0003 41.9487 49.9373 45.3153C48.7829 47.1991 47.1991 48.7829 45.3153 49.9373C41.9487 52.0003 37.3659 52.0003 28.2003 52.0003H23.8C14.6344 52.0003 10.0516 52.0003 6.68502 49.9373C4.80124 48.7829 3.21742 47.1991 2.06304 45.3153C0 41.9487 0 37.3659 0 28.2003V23.8Z" fill="white"/>
<path opacity="0.2" d="M0 23.8C0 14.6344 0 10.0516 2.06304 6.68502C3.21742 4.80124 4.80124 3.21742 6.68502 2.06304C10.0516 0 14.6344 0 23.8 0H28.2003C37.3659 0 41.9487 0 45.3153 2.06304C47.1991 3.21742 48.7829 4.80124 49.9373 6.68502C52.0003 10.0516 52.0003 14.6344 52.0003 23.8V28.2003C52.0003 37.3659 52.0003 41.9487 49.9373 45.3153C48.7829 47.1991 47.1991 48.7829 45.3153 49.9373C41.9487 52.0003 37.3659 52.0003 28.2003 52.0003H23.8C14.6344 52.0003 10.0516 52.0003 6.68502 49.9373C4.80124 48.7829 3.21742 47.1991 2.06304 45.3153C0 41.9487 0 37.3659 0 28.2003V23.8Z" fill="#FF9054"/>
<path d="M25.5551 19.49C26.8871 19.49 28.0511 19.748 29.0471 20.264C30.0551 20.768 30.8291 21.5 31.3691 22.46C31.9211 23.408 32.1971 24.518 32.1971 25.79C32.1971 27.062 31.9211 28.166 31.3691 29.102C30.8291 30.038 30.0551 30.758 29.0471 31.262C28.0511 31.754 26.8871 32 25.5551 32H21.4691V19.49H25.5551ZM25.5551 30.326C27.0191 30.326 28.1411 29.93 28.9211 29.138C29.7011 28.346 30.0911 27.23 30.0911 25.79C30.0911 24.338 29.7011 23.204 28.9211 22.388C28.1411 21.572 27.0191 21.164 25.5551 21.164H23.5211V30.326H25.5551Z" fill="#FF9054"/>
</svg>
